{"title":"The.Borgias.S02E08.HDTV.XviD-Atilla82","uid":7328235,"size":419735415,"categoryP":"video","categoryS":"tv_shows","magnet":"?xt=urn:btih:c93c90233150f91d2eee0a267b88ab84c72359a9&amp;dn=The.Borgias.S02E08.HDTV.XviD-Atilla82&amp;tr=udp%3A%2F%2Ftracker.openbittorrent.com%3A80&amp;tr=udp%3A%2F%2Fopen.demonii.com%3A1337&amp;tr=udp%3A%2F%2Ftracker.coppersurfer.tk%3A6969&amp;tr=udp%3A%2F%2Fexodus.desync.com%3A6969","seeders":1,"leechers":0,"uploader":"Atilla82","files":3,"time":1338828358,"description":"The Borgias S02E08 HDTV XviD Atilla82\n\n\nThe Borgias (2011)\n\nThe saga of a crime family in 1492 Italy.\n &lt;a href=&quot;\nhttp://www.imdb.com/title/tt1582457/&quot; rel=&quot;nofollow&quot; target=&quot;_NEW&quot;&gt;\nhttp://www.imdb.com/title/tt1582457/&lt;/a&gt;\n\n\nlanguage: English\n\nscreenshots included in torrent\n\n\nGeneral\nComplete name : The.Borgias.S02E08.HDTV.XviD-Atilla82.avi\nFormat : AVI\nFormat/Info : Audio Video Interleave\nFile size : 400 MiB\nDuration : 50mn 5s\nOverall bit rate : 1 117 Kbps\nWriting application : Lavf52.61.0\n\nVideo\nID : 0\nFormat : MPEG-4 Visual\nFormat profile : Advanced Simple@L5\nFormat settings, BVOP : No\nFormat settings, QPel : Yes\nFormat settings, GMC : No warppoints\nFormat settings, Matrix : Default (H.263)\nCodec ID : XVID\nCodec ID/Hint : XviD\nDuration : 50mn 5s\nBit rate : 976 Kbps\nWidth : 680 pixels\nHeight : 380 pixels\nDisplay aspect ratio : 16:9\nFrame rate : 23.976 fps\nColor space : YUV\nChroma subsampling : 4:2:0\nBit depth : 8 bits\nScan type : Progressive\nCompression mode : Lossy\nBits/(Pixel*Frame) : 0.158\nStream size : 350 MiB (87%)\nWriting library : XviD 64\n\nAudio\nID : 1\nFormat : MPEG Audio\nFormat version : Version 1\nFormat profile : Layer 3\nCodec ID : 55\nCodec ID/Hint : MP3\nDuration : 50mn 5s\nBit rate mode : Constant\nBit rate : 128 Kbps\nChannel(s) : 2 channels\nSampling rate : 48.0 KHz\nCompression mode : Lossy\nStream size : 45.9 MiB (11%)\nAlignment : Aligned on interleaves\nInterleave, duration : 24 ms (0.58 video frame)\n\n\n\nSCREENSHOTS &lt;a href=&quot;\nhttp://www.pohrani.com/f/7/tN/2nerL7Vg/theborgiass02e08hdtvxvid.jpg&quot; rel=&quot;nofollow&quot; target=&quot;_NEW&quot;&gt;\nhttp://www.pohrani.com/f/7/tN/2nerL7Vg/theborgiass02e08hdtvxvid.jpg&lt;/a&gt;\n","torrent":{"xt":"urn:btih:c93c90233150f91d2eee0a267b88ab84c72359a9","amp;dn":"The.Borgias.S02E08.HDTV.XviD-Atilla82","amp;tr":["udp%3A%2F%2Ftracker.openbittorrent.com%3A80","udp%3A%2F%2Fopen.demonii.com%3A1337","udp%3A%2F%2Ftracker.coppersurfer.tk%3A6969","udp%3A%2F%2Fexodus.desync.com%3A6969"],"infoHash":"c93c90233150f91d2eee0a267b88ab84c72359a9","infoHashBuffer":{"type":"Buffer","data":[201,60,144,35,49,80,249,29,46,238,10,38,123,136,171,132,199,35,89,169]},"announce":[],"urlList":[]}}